<svg width="55" height="45" viewBox="0 0 55 45" fill="none" xmlns="http://www.w3.org/2000/svg">
<path d="M12.375 0.499756C14.1984 0.499756 15.947 1.22408 17.2364 2.5134C18.5257 3.80271 19.25 5.55139 19.25 7.37476C19.25 9.19812 18.5257 10.9468 17.2364 12.2361C15.947 13.5254 14.1984 14.2498 12.375 14.2498C10.5516 14.2498 8.80295 13.5254 7.51364 12.2361C6.22433 10.9468 5.5 9.19812 5.5 7.37476C5.5 5.55139 6.22433 3.80271 7.51364 2.5134C8.80295 1.22408 10.5516 0.499756 12.375 0.499756ZM44 0.499756C45.8234 0.499756 47.572 1.22408 48.8614 2.5134C50.1507 3.80271 50.875 5.55139 50.875 7.37476C50.875 9.19812 50.1507 10.9468 48.8614 12.2361C47.572 13.5254 45.8234 14.2498 44 14.2498C42.1766 14.2498 40.428 13.5254 39.1386 12.2361C37.8493 10.9468 37.125 9.19812 37.125 7.37476C37.125 5.55139 37.8493 3.80271 39.1386 2.5134C40.428 1.22408 42.1766 0.499756 44 0.499756ZM0 26.1693C0 21.1076 4.10781 16.9998 9.16953 16.9998H12.8391C14.2055 16.9998 15.5031 17.3005 16.6719 17.8333C16.5602 18.4521 16.5086 19.0966 16.5086 19.7498C16.5086 23.0326 17.9523 25.9802 20.2297 27.9998C20.2125 27.9998 20.1953 27.9998 20.1695 27.9998H1.83047C0.825 27.9998 0 27.1748 0 26.1693ZM34.8305 27.9998C34.8133 27.9998 34.7961 27.9998 34.7703 27.9998C37.0563 25.9802 38.4914 23.0326 38.4914 19.7498C38.4914 19.0966 38.4313 18.4607 38.3281 17.8333C39.4969 17.2919 40.7945 16.9998 42.1609 16.9998H45.8305C50.8922 16.9998 55 21.1076 55 26.1693C55 27.1834 54.175 27.9998 53.1695 27.9998H34.8305ZM19.25 19.7498C19.25 17.5617 20.1192 15.4633 21.6664 13.9161C23.2135 12.3689 25.312 11.4998 27.5 11.4998C29.688 11.4998 31.7865 12.3689 33.3336 13.9161C34.8808 15.4633 35.75 17.5617 35.75 19.7498C35.75 21.9378 34.8808 24.0362 33.3336 25.5834C31.7865 27.1306 29.688 27.9998 27.5 27.9998C25.312 27.9998 23.2135 27.1306 21.6664 25.5834C20.1192 24.0362 19.25 21.9378 19.25 19.7498ZM11 42.2052C11 35.8802 16.1305 30.7498 22.4555 30.7498H32.5445C38.8695 30.7498 44 35.8802 44 42.2052C44 43.4685 42.9773 44.4998 41.7055 44.4998H13.2945C12.0312 44.4998 11 43.4771 11 42.2052Z" fill="#1E1E1E"/>
</svg>
