<svg width="54" height="40" viewBox="0 0 54 40" fill="none" xmlns="http://www.w3.org/2000/svg">
<path fill-rule="evenodd" clip-rule="evenodd" d="M0 5C0 2.23733 2.16 0 4.82143 0H20.25C22.914 0 25.0714 2.24 25.0714 5V15C25.0714 17.7627 22.9114 20 20.25 20H4.82143C3.54271 20 2.31636 19.4732 1.41216 18.5355C0.50797 17.5979 0 16.3261 0 15V5ZM30.8571 9C30.8571 6.23733 33.0171 4 35.6786 4H49.1786C51.84 4 54 6.24 54 9V31C54 33.76 51.84 36 49.1786 36H35.6786C34.3998 36 33.1735 35.4732 32.2693 34.5355C31.3651 33.5979 30.8571 32.3261 30.8571 31V9ZM3.85714 29C3.85714 26.2373 6.01714 24 8.67857 24H22.1786C24.8426 24 27 26.24 27 29V35C27 37.76 24.84 40 22.1786 40H8.67857C7.39985 40 6.1735 39.4732 5.26931 38.5355C4.36511 37.5979 3.85714 36.3261 3.85714 35V29Z" fill="white"/>
</svg>
