<svg width="92" height="24" viewBox="0 0 92 24" fill="none" xmlns="http://www.w3.org/2000/svg">
<path fill-rule="evenodd" clip-rule="evenodd" d="M10.0876 23.8701L10.0844 11.7297C7.08305 11.9813 7.17491 9.15824 7.17491 9.15824C7.90978 8.58411 8.53008 7.90488 9.03578 7.12051C9.74873 6.01473 11.6769 5.64611 11.6769 5.64611L11.2176 4.23408C12.1981 4.01424 12.869 5.64611 12.869 5.64611V3.76374C13.4095 3.94361 13.7567 4.14866 13.9106 4.37889C13.9667 4.46281 14.0167 4.55181 14.0615 4.64353C14.398 5.33391 14.4306 6.17879 14.4306 6.17879C15.2717 6.72839 16.2006 7.61409 16.4246 9.44044C16.4246 10.4114 16.6838 19.9936 16.7762 23.3769C21.3358 21.6764 24.5831 17.2824 24.5831 12.1299C24.5831 5.50253 19.2106 0.129944 12.5831 0.129944C5.95571 0.129944 0.58313 5.50253 0.58313 12.1299C0.58313 17.9016 4.65788 22.7216 10.0876 23.8701Z" fill="#5A5A5A"/>
<path d="M33.3103 17.3039C33.6775 17.3039 33.7795 17.1204 33.9223 16.6716L35.0851 13.2444H40.3075L41.4906 16.6716C41.6335 17.1204 41.7763 17.3039 42.1435 17.3039L42.3463 17.3038C42.8298 17.3024 43.5606 17.2931 43.7551 17.2224C43.9183 17.1408 43.9998 16.9979 43.9998 16.8348C43.9998 16.6308 43.9386 16.4268 43.8571 16.2024L39.7566 4.22758C39.4098 3.20758 39.2058 2.75878 38.1043 2.75878H37.5943C36.3906 2.75878 36.1051 3.24838 35.7583 4.26838L31.5763 16.2431C31.4946 16.4471 31.4335 16.6716 31.4335 16.8551C31.4335 16.9979 31.4743 17.1611 31.6783 17.2224C31.9026 17.2836 32.9635 17.3039 33.3103 17.3039ZM39.7566 11.2248H35.6766C36.9415 7.38958 37.3698 6.12478 37.7371 4.83958C38.1246 6.12478 38.4918 7.34878 39.7566 11.2248ZM48.9163 17.3448C49.2835 17.3448 49.4466 17.2428 49.5078 16.9571C49.5486 16.7736 49.5895 16.3451 49.5895 16.0391C49.5895 15.7739 49.4671 15.6108 49.2018 15.5699C48.6103 15.4679 48.2023 15.2844 48.0391 14.9988C47.8963 14.7336 47.8351 14.3868 47.8351 13.7748V2.51398C47.8351 2.16718 47.7535 1.98358 47.3863 1.98358H46.0603C45.6931 1.98358 45.5706 2.18758 45.5706 2.51398V14.0604C45.5706 15.0804 45.6931 15.7536 45.9583 16.1819C46.4071 16.8959 47.1823 17.3448 48.9163 17.3448ZM53.0778 22.0164C53.4451 22.0164 53.6491 21.8939 53.6491 21.4859V17.1816C54.0978 17.4059 54.9751 17.5079 55.6075 17.5079C58.9531 17.5079 60.5646 16.4471 60.5646 11.9388C60.5646 7.94038 59.2591 6.77758 56.2806 6.77758C54.7915 6.77758 52.9758 7.10398 52.1598 7.47118C51.8538 7.61398 51.5886 7.79758 51.4866 8.06278C51.4051 8.26678 51.3846 8.59318 51.3846 8.87878V21.4859C51.3846 21.9144 51.5275 22.0164 51.8538 22.0164H53.0778ZM55.4238 15.5496C54.8935 15.5496 54.2611 15.4679 53.9551 15.3251C53.7306 15.2436 53.6491 15.1008 53.6491 14.6724V9.87838C53.6491 9.65398 53.6491 9.47038 53.7103 9.34798C53.7511 9.22558 53.8735 9.12358 54.0366 9.04198C54.5466 8.81758 55.3626 8.69518 56.0358 8.69518C57.8515 8.69518 58.2798 9.65398 58.2798 11.9592C58.2798 14.7539 57.7291 15.5496 55.4238 15.5496ZM66.1746 17.5079C67.5823 17.5079 69.3366 17.2428 70.1323 16.9164C70.4586 16.7939 70.6423 16.6308 70.7851 16.4471C70.9686 16.2228 71.0095 15.8964 71.0095 15.5291V10.2456C71.0095 8.85838 70.8463 8.06278 70.3158 7.55278C69.7446 6.98158 68.8266 6.75718 67.0723 6.75718C66.0115 6.75718 64.6855 6.92038 63.6451 7.22638C63.4003 7.30798 63.2371 7.45078 63.2371 7.75678C63.2371 7.94038 63.3186 8.45038 63.4003 8.75638C63.4615 8.96038 63.5838 9.08278 63.7878 9.08278C63.9306 9.08278 64.3386 9.00118 64.6038 8.96038C65.3178 8.81758 66.0931 8.73598 66.7458 8.73598C68.0923 8.73598 68.4798 9.00118 68.6431 9.42958C68.7451 9.69478 68.7655 10.1436 68.7655 10.5312V11.2044C68.2351 11.1432 67.4191 11.1228 66.7866 11.1228C65.4403 11.1228 64.2163 11.3268 63.5635 11.7348C62.7678 12.2448 62.4211 12.9996 62.4211 14.2236C62.4211 15.9779 63.0535 17.5079 66.1746 17.5079ZM66.4603 15.7331C64.9303 15.7331 64.5835 15.1008 64.5835 14.1624C64.5835 13.5912 64.7263 13.2852 65.0323 13.1016C65.3995 12.8568 66.0318 12.7548 67.0518 12.7548C67.6231 12.7548 68.3371 12.7956 68.7655 12.8364V14.4276C68.7655 14.6928 68.7451 14.9376 68.6838 15.1211C68.6431 15.2639 68.5206 15.3864 68.3371 15.4679C67.9698 15.6108 67.3375 15.7331 66.4603 15.7331ZM77.9455 17.5079C78.9246 17.5079 80.0058 17.4059 80.9035 17.0796C81.1483 16.9979 81.2503 16.8551 81.2503 16.5899C81.2503 16.3859 81.1278 15.8964 81.0463 15.5904C80.9851 15.4068 80.8626 15.3048 80.6995 15.3048C80.5363 15.3048 80.2711 15.3659 80.1078 15.4068C79.5163 15.5291 78.9655 15.5904 78.1903 15.5904C76.2115 15.5904 75.7218 14.4276 75.7218 12.1224C75.7218 10.0416 76.0891 8.71558 78.3535 8.71558C78.9858 8.71558 79.4958 8.77678 79.9038 8.85838C80.0875 8.87878 80.3526 8.93998 80.5158 8.93998C80.6995 8.93998 80.8218 8.83798 80.8831 8.63398C80.9646 8.32798 81.0871 7.67518 81.0871 7.47118C81.0871 7.26718 80.9851 7.10398 80.7403 7.02238C80.1078 6.83878 79.2306 6.75718 78.3331 6.75718C74.7223 6.75718 73.4371 8.51158 73.4371 12.306C73.4371 16.2839 75.0691 17.5079 77.9455 17.5079ZM86.2483 17.5079C87.6558 17.5079 89.4103 17.2428 90.2058 16.9164C90.5323 16.7939 90.7158 16.6308 90.8586 16.4471C91.0423 16.2228 91.0831 15.8964 91.0831 15.5291V10.2456C91.0831 8.85838 90.9198 8.06278 90.3895 7.55278C89.8183 6.98158 88.9003 6.75718 87.1458 6.75718C86.0851 6.75718 84.7591 6.92038 83.7186 7.22638C83.4738 7.30798 83.3106 7.45078 83.3106 7.75678C83.3106 7.94038 83.3923 8.45038 83.4738 8.75638C83.5351 8.96038 83.6575 9.08278 83.8615 9.08278C84.0043 9.08278 84.4123 9.00118 84.6775 8.96038C85.3915 8.81758 86.1666 8.73598 86.8195 8.73598C88.1658 8.73598 88.5535 9.00118 88.7166 9.42958C88.8186 9.69478 88.8391 10.1436 88.8391 10.5312V11.2044C88.3086 11.1432 87.4926 11.1228 86.8603 11.1228C85.5138 11.1228 84.2898 11.3268 83.6371 11.7348C82.8415 12.2448 82.4946 12.9996 82.4946 14.2236C82.4946 15.9779 83.1271 17.5079 86.2483 17.5079ZM86.5338 15.7331C85.0038 15.7331 84.6571 15.1008 84.6571 14.1624C84.6571 13.5912 84.7998 13.2852 85.1058 13.1016C85.4731 12.8568 86.1055 12.7548 87.1255 12.7548C87.6966 12.7548 88.4106 12.7956 88.8391 12.8364V14.4276C88.8391 14.6928 88.8186 14.9376 88.7575 15.1211C88.7166 15.2639 88.5943 15.3864 88.4106 15.4679C88.0435 15.6108 87.4111 15.7331 86.5338 15.7331Z" fill="#5A5A5A"/>
<path d="M12.8787 5.64703C13.2101 5.64703 13.4787 5.21664 13.4787 4.68572C13.4787 4.15482 13.2101 3.72443 12.8787 3.72443C12.5474 3.72443 12.2787 4.15482 12.2787 4.68572C12.2787 5.21664 12.5474 5.64703 12.8787 5.64703Z" fill="#5A5A5A"/>
<path fill-rule="evenodd" clip-rule="evenodd" d="M7.20935 9.17348C7.25604 9.17348 7.3435 9.19905 7.3435 9.0743C7.3435 8.94955 7.3509 8.95809 7.30577 8.95636C7.20549 9.02911 7.17449 9.01952 7.17449 9.0743C7.17449 9.12909 7.16269 9.17348 7.20935 9.17348Z" fill="#5A5A5A"/>
<path fill-rule="evenodd" clip-rule="evenodd" d="M11.2085 4.18109C11.0982 4.21868 11.1196 4.56761 11.2563 4.96048C11.3931 5.35334 11.5934 5.64136 11.7037 5.60379C11.814 5.5662 11.7926 5.21727 11.6559 4.8244C11.5191 4.43153 11.3188 4.14352 11.2085 4.18109Z" fill="#5A5A5A"/>
<path d="M10.1322 8.51761H10.8598C11.2105 8.51761 11.3111 8.07123 11.3111 8.07123H10.5336C10.1821 8.07123 10.1322 8.51761 10.1322 8.51761Z" fill="#5A5A5A"/>
</svg>
