<svg width="122" height="24" viewBox="0 0 122 24" fill="none" xmlns="http://www.w3.org/2000/svg">
<mask id="mask0_316_202" style="mask-type:luminance" maskUnits="userSpaceOnUse" x="0" y="0" width="122" height="24">
<path d="M121.293 0H0.202515V24H121.293V0Z" fill="white"/>
</mask>
<g mask="url(#mask0_316_202)">
<path fill-rule="evenodd" clip-rule="evenodd" d="M18.7565 5.61975C18.7565 8.72375 16.2387 11.2401 13.1326 11.2401C10.0264 11.2401 7.5085 8.72375 7.5085 5.61975C7.5085 2.51637 10.0264 0 13.1326 0C16.2387 0 18.7565 2.51637 18.7565 5.61975ZM5.82661 12.6453C2.72053 12.6453 0.202515 15.1609 0.202515 18.2648C0.202515 21.3687 2.72053 23.8848 5.82661 23.8848C8.93281 23.8848 11.451 21.3687 11.451 18.2648C11.451 15.1609 8.93281 12.6453 5.82661 12.6453ZM20.4385 12.6448C17.3323 12.6448 14.8144 15.1609 14.8144 18.2648C14.8144 21.3687 17.3323 23.8848 20.4385 23.8848C23.5445 23.8848 26.0625 21.3687 26.0625 18.2648C26.0625 15.1609 23.5445 12.6448 20.4385 12.6448Z" fill="#5A5A5A"/>
<path fill-rule="evenodd" clip-rule="evenodd" d="M45.8523 18.1983C45.9257 19.032 46.593 20.0933 47.7492 20.0933H48.4257C48.6878 20.0933 48.9028 19.8785 48.9028 19.6161V4.74933H48.8998C48.8862 4.49886 48.6792 4.29826 48.4257 4.29826H46.3295C46.076 4.29826 45.8688 4.49886 45.8548 4.74933H45.8523V5.95734C44.568 4.37541 42.543 3.71881 40.5125 3.71881C35.897 3.71881 32.1553 7.46049 32.1553 12.0764C32.1553 16.6925 35.897 20.4343 40.5125 20.4343V20.4346C42.543 20.4346 44.756 19.647 45.852 18.1965L45.8523 18.1983ZM40.5207 17.5093C37.5852 17.5093 35.2055 15.0771 35.2055 12.0764C35.2055 9.07618 37.5852 6.64389 40.5207 6.64389C43.456 6.64389 45.8355 9.07618 45.8355 12.0764C45.8355 15.0771 43.456 17.5093 40.5207 17.5093Z" fill="#5A5A5A"/>
<path fill-rule="evenodd" clip-rule="evenodd" d="M80.0045 18.1983C80.0778 19.032 80.7452 20.0933 81.9013 20.0933H82.5778C82.8402 20.0933 83.0548 19.8785 83.0548 19.6161V4.74933H83.0522C83.0383 4.49886 82.8312 4.29826 82.5778 4.29826H80.4817C80.2282 4.29826 80.0212 4.49886 80.0068 4.74933H80.0045V5.95734C78.72 4.37541 76.6952 3.71881 74.6645 3.71881C70.049 3.71881 66.3075 7.46049 66.3075 12.0764C66.3075 16.6925 70.049 20.4343 74.6645 20.4343V20.4346C76.6952 20.4346 78.9082 19.647 80.0042 18.1965L80.0045 18.1983ZM74.6727 17.5093C71.7373 17.5093 69.3575 15.0771 69.3575 12.0764C69.3575 9.07618 71.7373 6.64389 74.6727 6.64389C77.6082 6.64389 79.9877 9.07618 79.9877 12.0764C79.9877 15.0771 77.6082 17.5093 74.6727 17.5093Z" fill="#5A5A5A"/>
<path fill-rule="evenodd" clip-rule="evenodd" d="M118.182 18.1983C118.256 19.032 118.923 20.0933 120.079 20.0933H120.756C121.018 20.0933 121.233 19.8785 121.233 19.6161V4.74933H121.23C121.216 4.49886 121.009 4.29826 120.756 4.29826H118.66C118.406 4.29826 118.199 4.49886 118.185 4.74933H118.182V5.95734C116.898 4.37541 114.873 3.71881 112.843 3.71881C108.227 3.71881 104.485 7.46049 104.485 12.0764C104.485 16.6925 108.227 20.4343 112.843 20.4343V20.4346C114.873 20.4346 117.086 19.647 118.182 18.1965L118.182 18.1983ZM112.851 17.5093C109.915 17.5093 107.535 15.0771 107.535 12.0764C107.535 9.07618 109.915 6.64389 112.851 6.64389C115.786 6.64389 118.166 9.07618 118.166 12.0764C118.166 15.0771 115.786 17.5093 112.851 17.5093Z" fill="#5A5A5A"/>
<path fill-rule="evenodd" clip-rule="evenodd" d="M101.836 18.7095L101.835 11.0166H101.835C101.835 6.6801 99.0994 3.75464 94.737 3.75464C92.6545 3.75464 90.9474 4.95885 90.3445 5.9933C90.2142 5.18444 89.7847 4.33422 88.453 4.33422H87.7744C87.5119 4.33422 87.2974 4.54916 87.2974 4.81142V18.2355V18.2377V19.6795H87.3C87.3139 19.9297 87.521 20.1305 87.7745 20.1305H89.8709C89.9029 20.1305 89.9344 20.1267 89.9649 20.1207C89.9787 20.118 89.9915 20.1127 90.005 20.1088C90.0207 20.104 90.0369 20.1003 90.0517 20.0942C90.0704 20.0865 90.0872 20.076 90.1047 20.0665C90.1132 20.0612 90.122 20.0575 90.1302 20.0522C90.1512 20.0387 90.1704 20.0223 90.1889 20.0058C90.1919 20.0027 90.1955 20.0007 90.1987 19.9978C90.2194 19.9777 90.2385 19.9555 90.2554 19.9325L90.2555 19.932C90.308 19.86 90.3399 19.7732 90.345 19.6795H90.3477V10.8973C90.3477 8.56832 92.236 6.6801 94.565 6.6801C96.8942 6.6801 98.7824 8.56832 98.7824 10.8973L98.7842 18.2382L98.7849 18.2355C98.7849 18.242 98.7859 18.2488 98.7859 18.2557V19.6795H98.7885C98.8024 19.9297 99.0095 20.1305 99.263 20.1305H101.359C101.392 20.1305 101.423 20.1267 101.453 20.1207C101.466 20.1185 101.477 20.1135 101.489 20.11C101.506 20.1052 101.524 20.1008 101.541 20.0942C101.558 20.0872 101.573 20.0772 101.59 20.068C101.599 20.0625 101.61 20.0585 101.619 20.0522C101.639 20.0393 101.656 20.024 101.674 20.0088C101.678 20.0048 101.683 20.0017 101.687 19.9975C101.707 19.9783 101.725 19.9577 101.741 19.936C101.742 19.9343 101.744 19.933 101.745 19.9315C101.796 19.86 101.828 19.7738 101.833 19.6808C101.833 19.6802 101.834 19.6795 101.834 19.6795H101.837V18.7098L101.836 18.7095Z" fill="#5A5A5A"/>
<path fill-rule="evenodd" clip-rule="evenodd" d="M53.911 16.069C55.3104 17.0385 56.8379 17.5093 58.3057 17.5093C59.7042 17.5093 61.1499 16.7843 61.1499 15.5226C61.1499 13.8379 57.9995 13.5757 56.0204 12.903C54.0407 12.2303 52.3357 10.8397 52.3357 8.5877C52.3357 5.14178 55.406 3.71857 58.2717 3.71857C60.0874 3.71857 61.9609 4.31732 63.1754 5.17502C63.5937 5.49197 63.3389 5.85585 63.3389 5.85585L62.1795 7.51177C62.0492 7.69828 61.8214 7.85942 61.4944 7.65755C61.1672 7.4558 60.02 6.64378 58.2717 6.64378C56.5234 6.64378 55.47 7.45123 55.47 8.45207C55.47 9.65222 56.839 10.0297 58.4422 10.4388C61.2362 11.1919 64.2842 12.0972 64.2842 15.5226C64.2842 18.5587 61.4444 20.435 58.3057 20.435C55.9272 20.435 53.9022 19.757 52.2039 18.5105C51.85 18.1565 52.0972 17.8277 52.0972 17.8277L53.2509 16.1802C53.4855 15.8721 53.7815 15.9796 53.911 16.069Z" fill="#5A5A5A"/>
</g>
</svg>
