<svg width="72" height="18" viewBox="0 0 72 18" fill="none" xmlns="http://www.w3.org/2000/svg">
<path d="M9.57585 10.6956V8.24084H17.8481C17.9289 8.66867 17.9706 9.17475 17.9706 9.72259C17.9706 11.5643 17.4671 13.8417 15.8445 15.4643C14.2663 17.1078 12.2498 17.9843 9.57846 17.9843C4.62715 17.9843 0.463684 13.9513 0.463684 8.99997C0.463684 4.04867 4.62715 0.015625 9.57846 0.015625C12.3176 0.015625 14.2689 1.09041 15.735 2.49129L14.0028 4.22345C12.9515 3.23737 11.5271 2.4704 9.57585 2.4704C5.9602 2.4704 3.13239 5.38432 3.13239 8.99997C3.13239 12.6156 5.9602 15.5295 9.57585 15.5295C11.9211 15.5295 13.2567 14.5878 14.1124 13.7322C14.8063 13.0382 15.2628 12.0469 15.4428 10.693L9.57585 10.6956Z" fill="#5A5A5A"/>
<path d="M30.786 9.00001C30.786 12.3313 28.1798 14.786 24.9817 14.786C21.7834 14.786 19.1772 12.3313 19.1772 9.00001C19.1772 5.64523 21.7834 3.21393 24.9817 3.21393C28.1798 3.21393 30.786 5.64523 30.786 9.00001ZM28.245 9.00001C28.245 6.91828 26.7347 5.49393 24.9817 5.49393C23.2285 5.49393 21.7182 6.91828 21.7182 9.00001C21.7182 11.0609 23.2285 12.5061 24.9817 12.5061C26.7347 12.5061 28.245 11.0583 28.245 9.00001Z" fill="#5A5A5A"/>
<path d="M43.6014 9.00001C43.6014 12.3313 40.9952 14.786 37.7969 14.786C34.5987 14.786 31.9926 12.3313 31.9926 9.00001C31.9926 5.64783 34.5987 3.21393 37.7969 3.21393C40.9952 3.21393 43.6014 5.64523 43.6014 9.00001ZM41.0604 9.00001C41.0604 6.91828 39.55 5.49393 37.7969 5.49393C36.0439 5.49393 34.5336 6.91828 34.5336 9.00001C34.5336 11.0609 36.0439 12.5061 37.7969 12.5061C39.55 12.5061 41.0604 11.0583 41.0604 9.00001Z" fill="#5A5A5A"/>
<path d="M55.9001 0.971758V11.3596C55.9001 15.6326 53.3801 17.3778 50.401 17.3778C47.5966 17.3778 45.9088 15.5021 45.2723 13.9683L47.4845 13.0475C47.8785 13.9891 48.8436 15.1005 50.3985 15.1005C52.3053 15.1005 53.4871 13.924 53.4871 11.7091V10.877H53.3985C52.8296 11.5786 51.7341 12.1918 50.3515 12.1918C47.4585 12.1918 44.808 9.67176 44.808 6.42914C44.808 3.16306 47.4585 0.622192 50.3515 0.622192C51.7315 0.622192 52.8271 1.23523 53.3985 1.91609H53.4871V0.974359H55.9001V0.971758ZM53.6671 6.42914C53.6671 4.39176 52.308 2.90219 50.5785 2.90219C48.8253 2.90219 47.3566 4.39176 47.3566 6.42914C47.3566 8.44566 48.8253 9.91436 50.5785 9.91436C52.308 9.91436 53.6671 8.44566 53.6671 6.42914Z" fill="#5A5A5A"/>
<path d="M59.5849 0.521729V17.4783H57.1068V0.521729H59.5849Z" fill="#5A5A5A"/>
<path d="M69.382 10.9069L71.3542 12.2217C70.7177 13.1634 69.1837 14.7861 66.5333 14.7861C63.2463 14.7861 60.7915 12.2452 60.7915 8.99997C60.7915 5.55908 63.2672 3.21387 66.249 3.21387C69.2515 3.21387 70.7202 5.60343 71.2002 6.89475L71.4637 7.55213L63.729 10.7556C64.3212 11.9165 65.242 12.5086 66.5333 12.5086C67.8272 12.5086 68.7245 11.8721 69.382 10.9069ZM63.3115 8.82518L68.482 6.67822C68.1977 5.95562 67.342 5.45213 66.335 5.45213C65.0437 5.45213 63.2463 6.59213 63.3115 8.82518Z" fill="#5A5A5A"/>
</svg>
