<svg width="26" height="26" viewBox="0 0 26 26" fill="none" xmlns="http://www.w3.org/2000/svg">
<path d="M13.3446 7.63452C10.2391 7.63452 7.73425 10.1394 7.73425 13.2449C7.73425 16.3503 10.2391 18.8552 13.3446 18.8552C16.4501 18.8552 18.955 16.3503 18.955 13.2449C18.955 10.1394 16.4501 7.63452 13.3446 7.63452ZM13.3446 16.8923C11.3378 16.8923 9.69714 15.2566 9.69714 13.2449C9.69714 11.2332 11.3329 9.59741 13.3446 9.59741C15.3563 9.59741 16.9921 11.2332 16.9921 13.2449C16.9921 15.2566 15.3514 16.8923 13.3446 16.8923ZM20.493 7.40503C20.493 8.13257 19.9071 8.71362 19.1845 8.71362C18.4569 8.71362 17.8759 8.12769 17.8759 7.40503C17.8759 6.68237 18.4618 6.09644 19.1845 6.09644C19.9071 6.09644 20.493 6.68237 20.493 7.40503ZM24.2089 8.73315C24.1259 6.98022 23.7255 5.42749 22.4413 4.14819C21.162 2.8689 19.6093 2.46851 17.8563 2.38062C16.0497 2.27808 10.6346 2.27808 8.828 2.38062C7.07996 2.46362 5.52722 2.86401 4.24304 4.14331C2.95886 5.42261 2.56335 6.97534 2.47546 8.72827C2.37292 10.5349 2.37292 15.95 2.47546 17.7566C2.55847 19.5095 2.95886 21.0623 4.24304 22.3416C5.52722 23.6208 7.07507 24.0212 8.828 24.1091C10.6346 24.2117 16.0497 24.2117 17.8563 24.1091C19.6093 24.0261 21.162 23.6257 22.4413 22.3416C23.7206 21.0623 24.121 19.5095 24.2089 17.7566C24.3114 15.95 24.3114 10.5398 24.2089 8.73315ZM21.8749 19.6951C21.494 20.6521 20.7567 21.3894 19.7948 21.7751C18.3544 22.3464 14.9364 22.2146 13.3446 22.2146C11.7528 22.2146 8.32996 22.3416 6.89441 21.7751C5.93738 21.3943 5.20007 20.657 4.81433 19.6951C4.24304 18.2546 4.37488 14.8367 4.37488 13.2449C4.37488 11.6531 4.24792 8.23022 4.81433 6.79468C5.19519 5.83765 5.93249 5.10034 6.89441 4.7146C8.33484 4.14331 11.7528 4.27515 13.3446 4.27515C14.9364 4.27515 18.3593 4.14819 19.7948 4.7146C20.7518 5.09546 21.4891 5.83276 21.8749 6.79468C22.4462 8.23511 22.3143 11.6531 22.3143 13.2449C22.3143 14.8367 22.4462 18.2595 21.8749 19.6951Z" fill="white"/>
</svg>
