<svg width="1000" height="952" viewBox="0 0 1000 952" fill="none" xmlns="http://www.w3.org/2000/svg">
<path d="M1.16705 1.05408C255.249 115.416 508.61 240.181 769.935 337.99C836.519 362.911 893.922 368.484 963.523 374.832C1170.74 393.732 1377.71 410.336 1585.15 427.081C1782.65 443.023 1979.18 465.098 2175.29 493.396C2280.3 508.549 2385.69 524.086 2487.66 554.353C2670.5 608.624 2844.16 686.549 2997.64 800.412C3069.46 853.694 3130.55 921.043 3202.17 973.681C3216.14 983.944 3227.58 984.468 3245.49 985.068C3324.42 987.714 3403.66 985.526 3482.62 985.738C3529.74 985.865 3577.43 984.813 3624.4 989.757C3631.19 990.471 3646.29 990.99 3653.65 994.67C3657.56 996.625 3656.12 998.665 3658.57 993.776" stroke="white" stroke-width="2" stroke-linecap="round"/>
</svg>
