<svg width="26" height="26" viewBox="0 0 26 26" fill="none" xmlns="http://www.w3.org/2000/svg">
<path d="M7.13867 22.6255H2.60352V8.021H7.13867V22.6255ZM4.86865 6.02881C3.41846 6.02881 2.24219 4.82764 2.24219 3.37744C2.24219 2.68086 2.5189 2.01281 3.01146 1.52025C3.50402 1.02769 4.17207 0.750977 4.86865 0.750977C5.56523 0.750977 6.23329 1.02769 6.72584 1.52025C7.2184 2.01281 7.49512 2.68086 7.49512 3.37744C7.49512 4.82764 6.31836 6.02881 4.86865 6.02881ZM24.1123 22.6255H19.5869V15.5161C19.5869 13.8218 19.5527 11.6489 17.229 11.6489C14.8711 11.6489 14.5098 13.4897 14.5098 15.394V22.6255H9.97949V8.021H14.3291V10.0132H14.3926C14.998 8.86572 16.4771 7.65479 18.6836 7.65479C23.2734 7.65479 24.1172 10.6772 24.1172 14.603V22.6255H24.1123Z" fill="white"/>
</svg>
