<svg width="44" height="57" viewBox="0 0 44 57" fill="none" xmlns="http://www.w3.org/2000/svg">
<path d="M24.7156 55.7192C30.5938 48.5534 44 31.1858 44 21.4305C44 9.59906 34.1458 0 22 0C9.85417 0 0 9.59906 0 21.4305C0 31.1858 13.4063 48.5534 19.2844 55.7192C20.6938 57.4269 23.3062 57.4269 24.7156 55.7192ZM22 14.287C23.9449 14.287 25.8102 15.0396 27.1855 16.3793C28.5607 17.7189 29.3333 19.5359 29.3333 21.4305C29.3333 23.325 28.5607 25.142 27.1855 26.4817C25.8102 27.8213 23.9449 28.5739 22 28.5739C20.0551 28.5739 18.1898 27.8213 16.8146 26.4817C15.4393 25.142 14.6667 23.325 14.6667 21.4305C14.6667 19.5359 15.4393 17.7189 16.8146 16.3793C18.1898 15.0396 20.0551 14.287 22 14.287Z" fill="white"/>
</svg>
