<svg width="110" height="24" viewBox="0 0 110 24" fill="none" xmlns="http://www.w3.org/2000/svg">
<path fill-rule="evenodd" clip-rule="evenodd" d="M26.1317 20.2517H28.1607V23.6225H21.8052V14.9226C21.8052 12.2411 20.9258 11.2091 19.2022 11.2091C17.1055 11.2091 16.2611 12.7222 16.2611 14.8887V20.2865H18.2892V23.6563H11.8996V14.9226C11.8996 12.2411 11.0204 11.2091 9.29673 11.2091C7.20108 11.2091 6.35563 12.7222 6.35563 14.8887V20.2865H9.26291V23.6563H0V20.2865H2.02908V11.52H0V8.14908H6.38945V10.488C7.30255 8.83745 8.8909 7.84037 11.0204 7.84037C13.2185 7.84037 15.2465 8.90618 15.9905 11.1764C16.8348 9.11237 18.5597 7.84037 20.9597 7.84037C23.6978 7.84037 26.1993 9.52582 26.1993 13.2044V20.2527H26.1317V20.2517ZM38.1327 20.5615C35.7665 20.5615 34.5492 18.4985 34.5492 15.816C34.5492 12.8935 35.9345 11.2091 38.1665 11.2091C40.2283 11.2091 41.8855 12.6185 41.8855 15.7473C41.8855 18.7397 40.3975 20.5615 38.1327 20.5615ZM38.2342 7.83927C32.7578 7.83927 30.0523 11.5876 30.0523 16.1258C30.0523 21.0775 33.2988 24 37.9975 24C42.8662 24 46.3812 20.8713 46.3812 15.9196C46.3812 11.5876 43.7105 7.83927 38.2342 7.83927ZM60.0393 17.88L63.4865 18.2237L62.5406 23.6563H49.2545L48.816 21.3185L57.1985 11.5189H52.4323L51.756 13.9254L48.6132 13.5818L49.1532 8.14908H62.5068L62.8452 10.4869L54.3938 20.2865H59.3292L60.0382 17.88H60.0393ZM66.6993 23.6563H71.2625V18.0862H66.6993V23.6563ZM66.6993 13.7182H71.2625V8.14908H66.6993V13.7193V13.7182ZM84.9535 0L78.3622 23.6215H74.0683L80.6618 0H84.9545H84.9535ZM93.8116 0L87.2181 23.6215H82.9243L89.5178 0H93.8105H93.8116ZM99.6588 20.8037C98.3411 20.8037 97.8676 20.0117 97.8676 19.0145C97.8676 17.3292 99.2203 16.8828 100.775 16.8828C101.484 16.8828 102.263 16.9855 102.972 17.0892C102.87 19.668 101.214 20.8025 99.6588 20.8025V20.8037ZM108.989 20.9052C108.782 20.9705 108.566 21.0053 108.348 21.0087C107.638 21.0087 107.3 20.6988 107.3 19.8055V13.1007C107.3 9.55855 104.528 7.83927 101.248 7.83927C98.7468 7.83927 97.3941 8.14908 94.7236 9.24982L94.1825 12.8247L97.6646 13.2033L98.172 11.4502C98.881 11.0716 99.5923 11.0029 100.504 11.0029C102.972 11.0029 103.006 12.8935 103.006 14.4753V14.9913C102.176 14.8922 101.34 14.8463 100.504 14.8538C97.0221 14.8538 93.4058 15.7484 93.4058 19.5643C93.4058 22.7967 95.9061 24 98.1043 24C100.572 24 102.128 22.4868 103.006 20.9052C103.209 22.7967 104.325 24 106.353 24C107.3 24 108.28 23.7252 109.091 23.2778L108.989 20.9052Z" fill="#5A5A5A"/>
</svg>
