<svg width="12" height="12" viewBox="0 0 12 12" fill="none" xmlns="http://www.w3.org/2000/svg">
<path d="M7.36502 1.2225C7.04627 1.13062 6.7144 1.31625 6.62252 1.635L4.22252 10.035C4.13064 10.3537 4.31627 10.6856 4.63502 10.7775C4.95377 10.8694 5.28564 10.6837 5.37752 10.365L7.77752 1.965C7.86939 1.64625 7.68377 1.31437 7.36502 1.2225ZM8.87627 3.47437C8.6419 3.70875 8.6419 4.08937 8.87627 4.32375L10.5506 6L8.87439 7.67625C8.64002 7.91062 8.64002 8.29125 8.87439 8.52562C9.10877 8.76 9.48939 8.76 9.72377 8.52562L11.8238 6.42562C12.0581 6.19125 12.0581 5.81062 11.8238 5.57625L9.72377 3.47625C9.48939 3.24187 9.10877 3.24187 8.87439 3.47625L8.87627 3.47437ZM3.12564 3.47437C2.89127 3.24 2.51064 3.24 2.27627 3.47437L0.17627 5.57437C-0.0581055 5.80875 -0.0581055 6.18937 0.17627 6.42375L2.27627 8.52375C2.51064 8.75812 2.89127 8.75812 3.12564 8.52375C3.36002 8.28937 3.36002 7.90875 3.12564 7.67437L1.44939 6L3.12564 4.32375C3.36002 4.08937 3.36002 3.70875 3.12564 3.47437Z" fill="black"/>
</svg>
