<svg width="91" height="20" viewBox="0 0 91 20" fill="none" xmlns="http://www.w3.org/2000/svg">
<path d="M11.6408 0.27063H4.6357C4.15625 0.27063 3.74862 0.618985 3.67382 1.09236L0.840608 19.0554C0.784258 19.4097 1.05883 19.7294 1.4183 19.7294H4.76267C5.24204 19.7294 5.64967 19.3812 5.72447 18.9069L6.48859 14.062C6.56237 13.5877 6.97102 13.2394 7.44937 13.2394H9.667C14.2815 13.2394 16.9446 11.0064 17.6403 6.58145C17.9536 4.6455 17.6534 3.12445 16.7469 2.0592C15.7513 0.889333 13.9854 0.27063 11.6408 0.27063ZM12.449 6.83142C12.0659 9.34505 10.1454 9.34505 8.28829 9.34505H7.23124L7.9728 4.6507C8.01689 4.36694 8.26267 4.15799 8.54952 4.15799H9.03395C10.299 4.15799 11.4923 4.15799 12.1089 4.879C12.4767 5.30929 12.5894 5.94842 12.449 6.83142Z" fill="#5A5A5A"/>
<path d="M33.6115 3.51267H30.2572C29.9714 3.51267 29.7245 3.72164 29.6804 4.00539L29.532 4.94362L29.2974 4.60352C28.5712 3.54949 26.9517 3.1972 25.3354 3.1972C21.6284 3.1972 18.4623 6.00479 17.8457 9.9432C17.5251 11.9078 17.9809 13.7864 19.0954 15.0964C20.1175 16.301 21.5802 16.8029 23.3207 16.8029C26.3075 16.8029 27.9637 14.8824 27.9637 14.8824L27.8142 15.8145C27.7577 16.171 28.0324 16.4905 28.3899 16.4905H31.4114C31.8919 16.4905 32.2975 16.1422 32.3734 15.668L34.1862 4.18664C34.2437 3.83324 33.9702 3.51267 33.6115 3.51267ZM28.9357 10.0416C28.6122 11.958 27.091 13.2446 25.151 13.2446C24.177 13.2446 23.3984 12.9321 22.8985 12.3401C22.4029 11.7521 22.2144 10.9153 22.372 9.9831C22.6742 8.08307 24.221 6.75462 26.1312 6.75462C27.0839 6.75462 27.8582 7.07109 28.3684 7.66815C28.8795 8.27147 29.0822 9.11349 28.9357 10.0416Z" fill="#5A5A5A"/>
<path d="M49.808 1.24066H46.4372C46.1155 1.24066 45.8134 1.40046 45.631 1.66786L40.9817 8.51629L39.011 1.93516C38.887 1.52334 38.5072 1.24066 38.0769 1.24066H34.7644C34.3617 1.24066 34.0822 1.63396 34.2102 2.01296L37.9232 12.9095L34.4325 17.8374C34.1579 18.2255 34.4344 18.7594 34.9089 18.7594H38.2757C38.5952 18.7594 38.8944 18.6035 39.0755 18.3414L50.2875 2.15748C50.5559 1.77019 50.2804 1.24066 49.808 1.24066Z" fill="#5A5A5A"/>
<path d="M61.1853 0.27063H54.1792C53.7008 0.27063 53.2932 0.618985 53.2183 1.09236L50.3852 19.0554C50.3288 19.4097 50.6033 19.7294 50.9608 19.7294H54.5562C54.89 19.7294 55.176 19.4857 55.228 19.1537L56.032 14.062C56.1058 13.5877 56.5147 13.2394 56.9928 13.2394H59.2095C63.825 13.2394 66.4872 11.0064 67.1837 6.58145C67.4982 4.6455 67.196 3.12445 66.2895 2.0592C65.2948 0.889333 63.53 0.27063 61.1853 0.27063ZM61.9937 6.83142C61.6115 9.34505 59.691 9.34505 57.8328 9.34505H56.7768L57.5195 4.6507C57.5635 4.36694 57.8072 4.15799 58.095 4.15799H58.5795C59.8437 4.15799 61.0378 4.15799 61.6545 4.879C62.0222 5.30929 62.1338 5.94842 61.9937 6.83142Z" fill="#5A5A5A"/>
<path d="M83.1512 3.51267H79.7987C79.5109 3.51267 79.2659 3.72164 79.2229 4.00539L79.0744 4.94362L78.8389 4.60352C78.1127 3.54949 76.4942 3.1972 74.8779 3.1972C71.1709 3.1972 68.0059 6.00479 67.3892 9.9432C67.0697 11.9078 67.5234 13.7864 68.6379 15.0964C69.6622 16.301 71.1227 16.8029 72.8631 16.8029C75.8499 16.8029 77.5062 14.8824 77.5062 14.8824L77.3566 15.8145C77.3004 16.171 77.5747 16.4905 77.9344 16.4905H80.9551C81.4334 16.4905 81.8412 16.1422 81.9159 15.668L83.7299 4.18664C83.7851 3.83324 83.5107 3.51267 83.1512 3.51267ZM78.4752 10.0416C78.1536 11.958 76.6304 13.2446 74.6906 13.2446C73.7184 13.2446 72.9379 12.9321 72.4379 12.3401C71.9424 11.7521 71.7557 10.9153 71.9116 9.9831C72.2157 8.08307 73.7604 6.75462 75.6707 6.75462C76.6234 6.75462 77.3976 7.07109 77.9077 7.66815C78.4209 8.27147 78.6237 9.11349 78.4752 10.0416Z" fill="#5A5A5A"/>
<path d="M86.6046 0.763881L83.7292 19.0558C83.6731 19.4102 83.9474 19.7298 84.3049 19.7298H87.1954C87.6759 19.7298 88.0836 19.3817 88.1574 18.9073L90.9926 0.945324C91.0489 0.590772 90.7746 0.270203 90.4169 0.270203H87.1801C86.8944 0.271057 86.6486 0.480282 86.6046 0.763881Z" fill="#5A5A5A"/>
</svg>
