<svg width="26" height="26" viewBox="0 0 26 26" fill="none" xmlns="http://www.w3.org/2000/svg">
<path d="M25.1396 13.25C25.1396 19.9395 19.7197 25.3594 13.0303 25.3594C11.7803 25.3594 10.5791 25.1689 9.44629 24.8174C9.93945 24.0117 10.6768 22.6934 10.9502 21.6436C11.0967 21.0771 11.7021 18.7627 11.7021 18.7627C12.0977 19.5146 13.25 20.1543 14.4756 20.1543C18.1279 20.1543 20.7598 16.7949 20.7598 12.6201C20.7598 8.62109 17.4932 5.62793 13.2939 5.62793C8.06934 5.62793 5.29102 9.13379 5.29102 12.957C5.29102 14.7344 6.23828 16.9463 7.74707 17.6494C7.97656 17.7568 8.09863 17.708 8.15234 17.4883C8.19141 17.3223 8.39648 16.4971 8.48926 16.1162C8.51855 15.9941 8.50391 15.8867 8.40625 15.7695C7.91309 15.1592 7.5127 14.0459 7.5127 13.0059C7.5127 10.335 9.53418 7.75195 12.9814 7.75195C15.9551 7.75195 18.04 9.77832 18.04 12.6787C18.04 15.9551 16.3848 18.2256 14.2314 18.2256C13.0449 18.2256 12.1514 17.2441 12.4395 16.0381C12.7812 14.5977 13.4404 13.0449 13.4404 12.0049C13.4404 11.0771 12.9424 10.3008 11.9072 10.3008C10.6914 10.3008 9.71484 11.5557 9.71484 13.2402C9.71484 14.3145 10.0762 15.0371 10.0762 15.0371C10.0762 15.0371 8.87988 20.1055 8.66016 21.0527C8.41602 22.0977 8.51367 23.5723 8.61621 24.5293C4.11426 22.7666 0.920898 18.3818 0.920898 13.25C0.920898 6.56055 6.34082 1.14062 13.0303 1.14062C19.7197 1.14062 25.1396 6.56055 25.1396 13.25Z" fill="white"/>
</svg>
