<svg width="70" height="24" viewBox="0 0 70 24" fill="none" xmlns="http://www.w3.org/2000/svg">
<mask id="mask0_316_179" style="mask-type:luminance" maskUnits="userSpaceOnUse" x="0" y="0" width="70" height="24">
<path d="M69.3443 0H0.210266V24H69.3443V0Z" fill="white"/>
</mask>
<g mask="url(#mask0_316_179)">
<path d="M4.18778 17.1405C4.47993 17.9158 4.88442 18.5787 5.40128 19.1292C5.91817 19.6798 6.53052 20.1012 7.23833 20.3933C7.94623 20.6855 8.71588 20.8315 9.54737 20.8315C10.3564 20.8315 11.1148 20.6798 11.8227 20.3763C12.5306 20.073 13.1485 19.646 13.6766 19.0955C14.2047 18.545 14.6148 17.8877 14.907 17.1237C15.1991 16.3596 15.3452 15.5057 15.3452 14.5618V0H18.8844V23.5955H15.3789V21.4045C14.5924 22.2358 13.6653 22.8763 12.5979 23.3258C11.5305 23.7753 10.3789 24 9.14288 24C7.8844 24 6.71027 23.7808 5.62035 23.3427C4.5305 22.9045 3.58662 22.281 2.78892 21.4718C1.99123 20.6628 1.36195 19.6912 0.901303 18.5562C0.440588 17.4213 0.210266 16.1574 0.210266 14.764V0H3.74958V14.5618C3.74958 15.5057 3.89563 16.3652 4.18778 17.1405Z" fill="#5A5A5A"/>
<path d="M24.9853 0V8.5955C25.7718 7.80898 26.6819 7.18545 27.7156 6.72473C28.7493 6.26402 29.8729 6.0337 31.0864 6.0337C32.3449 6.0337 33.5246 6.26962 34.6258 6.74152C35.7268 7.21342 36.6818 7.85388 37.4909 8.66292C38.2999 9.47195 38.9404 10.427 39.4123 11.5281C39.8841 12.6293 40.1201 13.7978 40.1201 15.0337C40.1201 16.2696 39.8841 17.4325 39.4123 18.5223C38.9404 19.6123 38.2999 20.5618 37.4909 21.3707C36.6818 22.1797 35.7268 22.8202 34.6258 23.2922C33.5246 23.764 32.3448 24 31.0864 24C29.8729 24 28.7438 23.7697 27.6988 23.3088C26.6538 22.8482 25.7381 22.2247 24.9516 21.4382V23.5955H21.5808V0H24.9853ZM25.3729 17.3595C25.6763 18.0787 26.0976 18.7078 26.6369 19.2472C27.1763 19.7865 27.8056 20.2135 28.5246 20.5282C29.2438 20.8428 30.0189 21 30.8504 21C31.6596 21 32.4234 20.8428 33.1426 20.5282C33.8616 20.2135 34.4853 19.7867 35.0134 19.2472C35.5414 18.708 35.9628 18.0787 36.2774 17.3595C36.5921 16.6405 36.7493 15.8652 36.7493 15.0337C36.7493 14.2023 36.5921 13.4214 36.2774 12.691C35.9628 11.9607 35.5414 11.3259 35.0134 10.7865C34.4853 10.2473 33.8618 9.82587 33.1426 9.52252C32.4234 9.21918 31.6594 9.0674 30.8504 9.0674C30.0416 9.0674 29.2774 9.2191 28.5584 9.52252C27.8393 9.82593 27.2101 10.2473 26.6708 10.7865C26.1314 11.3259 25.7044 11.9607 25.3898 12.691C25.0753 13.4214 24.9179 14.2023 24.9179 15.0337C24.9179 15.8652 25.0696 16.6405 25.3729 17.3595Z" fill="#5A5A5A"/>
<path d="M42.0411 11.562C42.4904 10.4833 43.1086 9.53392 43.8951 8.71371C44.6814 7.89349 45.6141 7.24742 46.6928 6.77552C47.7714 6.3036 48.9399 6.06769 50.1984 6.06769C51.4344 6.06769 52.5804 6.29242 53.6366 6.74181C54.6928 7.19126 55.6029 7.81487 56.3669 8.61264C57.1311 9.41034 57.7266 10.3542 58.1534 11.4441C58.5804 12.534 58.7939 13.7194 58.7939 15.0003V16.1127H44.8053C44.9176 16.8093 45.1423 17.4553 45.4794 18.0508C45.8164 18.6463 46.2378 19.1632 46.7434 19.6013C47.2489 20.0397 47.8221 20.3823 48.4624 20.6295C49.1029 20.8767 49.7828 21.0003 50.5018 21.0003C52.5468 21.0003 54.1986 20.1575 55.4569 18.4722L57.9176 20.2923C57.0636 21.4385 56.0076 22.3373 54.7491 22.989C53.4906 23.6407 52.0749 23.9665 50.5019 23.9665C49.2209 23.9665 48.0244 23.7417 46.9121 23.2923C45.7996 22.843 44.8334 22.2137 44.0131 21.4047C43.1929 20.5957 42.5469 19.6462 42.0749 18.5563C41.6031 17.4665 41.3671 16.281 41.3671 15.0002C41.3669 13.7867 41.5918 12.6406 42.0411 11.562ZM46.7771 10.2305C45.8221 11.0283 45.1873 12.0901 44.8726 13.4159H55.3558C55.0636 12.0901 54.4401 11.0283 53.4849 10.2305C52.5299 9.43279 51.4119 9.03391 50.1311 9.03391C48.8501 9.03391 47.7321 9.43279 46.7771 10.2305Z" fill="#5A5A5A"/>
<path d="M65.1645 10.6179C64.4455 11.4044 64.086 12.4718 64.086 13.8201V23.5955H60.6813V6.40445H64.0521V8.52806C64.4791 7.83143 65.0353 7.28083 65.7206 6.87637C66.406 6.4718 67.2206 6.26953 68.1645 6.26953H69.3443V9.43808H67.9285C66.805 9.43817 65.8836 9.83138 65.1645 10.6179Z" fill="#5A5A5A"/>
</g>
</svg>
