<svg width="26" height="26" viewBox="0 0 26 26" fill="none" xmlns="http://www.w3.org/2000/svg">
<path d="M18.131 24.2929C22.3201 22.4043 25.1864 18.4314 25.6562 13.8589H21.0951C20.8835 18.0948 19.7901 21.7849 18.131 24.2929Z" fill="white"/>
<path d="M7.22485 13.8586C7.54778 20.524 10.325 25.0851 12.8282 25.0851C15.3314 25.0851 18.113 20.524 18.4382 13.854L7.22485 13.8586Z" fill="white"/>
<path d="M18.4382 11.2265C18.113 4.56107 15.3359 0 12.8282 0C10.3205 0 7.54778 4.56107 7.22485 11.2311L18.4382 11.2265Z" fill="white"/>
<path d="M25.6562 11.2264C25.184 6.65424 22.3178 2.67898 18.131 0.786133C19.7902 3.29381 20.8836 6.98862 21.0797 11.2247L25.6562 11.2264Z" fill="white"/>
<path d="M7.53204 0.786133C3.34064 2.67693 0.472071 6.65224 0 11.2264H4.56107C4.77264 6.9905 5.87289 3.29586 7.53204 0.786133Z" fill="white"/>
<path d="M0 13.8594C0.467687 18.4338 3.33842 22.4091 7.53204 24.2934C5.87284 21.7857 4.77271 18.0955 4.58337 13.8594H0Z" fill="white"/>
</svg>
