<svg width="42" height="31" viewBox="0 0 42 31" fill="none" xmlns="http://www.w3.org/2000/svg">
<path d="M40.9497 16.8036L36.6991 4.94126C36.3655 4.0347 35.3649 3.56427 34.4754 3.88076L31.1656 5.05245C30.738 5.20639 30.3873 5.52283 30.1906 5.94189C29.9939 6.36952 29.9682 6.84846 30.1307 7.28465L34.3814 19.147C34.6465 19.8654 35.3221 20.3101 36.032 20.3101C36.2287 20.3101 36.4169 20.2759 36.605 20.2075L39.9148 19.0358C40.351 18.8819 40.6931 18.5654 40.8898 18.1464C41.0865 17.7187 41.1122 17.2398 40.9497 16.8036Z" fill="white"/>
<path d="M8.35149 22.1831L8.31808 22.143C8.20658 22.0094 8.12181 21.895 8.03244 21.7379L5.47535 17.4902L5.02898 17.8387C3.88292 18.7197 3.6606 20.3874 4.51585 21.5591C4.7211 21.8414 4.97767 22.0722 5.26843 22.2433C3.86585 23.663 4.77242 24.9117 5.23423 25.5446C5.66186 26.1261 6.27767 26.4939 6.97893 26.588C7.09868 26.6051 7.21843 26.6136 7.33818 26.6136C7.41512 26.6136 7.49212 26.6051 7.57762 26.5966C7.62037 27.0584 7.77436 27.5031 8.06512 27.8965C8.49275 28.4781 9.10856 28.8459 9.80987 28.9399C9.92957 28.957 10.0493 28.9656 10.1691 28.9656C10.5111 28.9656 10.8447 28.8886 11.1611 28.7603C11.2467 29.0939 11.3921 29.4103 11.6059 29.7011C12.0249 30.2741 12.6493 30.6505 13.342 30.7445C13.4703 30.7616 13.5901 30.7702 13.7098 30.7702C14.2743 30.7702 14.8302 30.582 15.292 30.2228L15.738 29.8745C15.5052 29.7086 15.2863 29.5183 15.0854 29.3033L8.35149 22.1831Z" fill="white"/>
<path d="M18.8479 16.0015C18.1877 16.3138 17.4719 16.4759 16.7661 16.4759C16.3945 16.4759 16.0245 16.4316 15.6666 16.3447C13.1021 15.7166 12.299 14.2851 12.0768 13.1943C11.5736 10.7923 13.688 8.96065 14.3478 8.45618L14.4451 8.38185L14.8765 8.14131L14.9955 8.09621C15.1896 8.02307 15.7104 7.81135 16.5309 7.47267L14.0604 6.06164L14.5307 5.56558C15.1807 4.87283 15.1807 3.78664 14.5307 3.10245L12.0933 0.519565C11.4433 -0.173188 10.2802 -0.173188 9.63016 0.519565L0.487501 10.1925C-0.1625 10.8853 -0.1625 11.9629 0.487501 12.6556L2.92495 15.2385C3.24995 15.5806 3.68614 15.7687 4.15652 15.7687C4.6269 15.7687 5.06308 15.5806 5.38808 15.2385L5.83283 14.7681L9.51897 20.8917C9.55316 20.9516 9.58741 20.9943 9.63016 21.0456L16.3353 28.1357C16.8228 28.6574 17.4728 28.9397 18.1741 28.9397C18.8754 28.9397 19.5254 28.6574 20.0129 28.1357C20.2524 27.8877 20.4235 27.6055 20.5518 27.2975C21.5267 27.8792 22.8609 27.6995 23.6734 26.8443C23.9043 26.5963 24.0839 26.314 24.2037 26.0061C25.1787 26.5877 26.5214 26.4167 27.3253 25.5528C27.5648 25.3048 27.7444 25.0226 27.8642 24.7147L29.6242 24.0537L21.1171 15.0493C20.436 15.2982 19.5691 15.654 18.8479 16.0015Z" fill="white"/>
<path d="M28.5339 7.89846L22.6132 7.21651C22.0915 7.15664 21.5527 7.23363 21.0652 7.43889C17.9948 8.72177 16.0534 9.52571 15.6001 9.69677L15.3863 9.81652C15.0613 10.0645 13.4449 11.3816 13.7528 12.8527C13.9323 13.7335 14.7107 14.3493 16.0705 14.6829C16.7376 14.8454 17.456 14.7684 18.106 14.4605C19.2435 13.9132 20.8599 13.2803 21.6211 13.0921L29.9598 21.9183L33.0107 20.242C32.9207 20.0823 32.8417 19.9149 32.7769 19.7393L28.5339 7.89846Z" fill="white"/>
</svg>
