<svg width="26" height="26" viewBox="0 0 26 26" fill="none" xmlns="http://www.w3.org/2000/svg">
<path d="M12.9191 0C5.79551 0 0 5.79551 0 12.9191C0 20.0427 5.79551 25.8382 12.9191 25.8382C20.0427 25.8382 25.8382 20.0427 25.8382 12.9191C25.8382 5.79551 20.0427 0 12.9191 0ZM2.58382 12.9191C2.58382 11.7577 2.78536 10.6428 3.14063 9.60019L5.16764 11.6272L7.75146 14.211V16.7948L10.3353 19.3787L11.6272 20.6706V23.1652C6.53836 22.5257 2.58382 18.1798 2.58382 12.9191ZM21.0969 19.2146C20.2533 18.535 18.9743 18.0867 18.0867 18.0867V16.7948C18.0867 16.1096 17.8145 15.4524 17.33 14.9678C16.8454 14.4832 16.1882 14.211 15.5029 14.211H10.3353V10.3353C11.0206 10.3353 11.6778 10.0631 12.1623 9.5785C12.6469 9.09394 12.9191 8.43673 12.9191 7.75146V6.45955H14.211C14.8963 6.45955 15.5535 6.18733 16.038 5.70277C16.5226 5.21821 16.7948 4.561 16.7948 3.87573V3.34476C20.5775 4.88084 23.2544 8.5912 23.2544 12.9191C23.2542 15.1989 22.4951 17.4138 21.0969 19.2146Z" fill="white"/>
</svg>
