<svg width="22" height="27" viewBox="0 0 22 27" fill="none" xmlns="http://www.w3.org/2000/svg">
<path d="M18.507 11.1991V6.99944C18.507 3.13979 15.3101 0 11.3803 0H10.43C6.5002 0 3.30332 3.13979 3.30332 6.99944V11.1991C1.72879 11.1991 0.452637 12.4525 0.452637 13.9989V23.3315C0.452637 24.8779 1.72879 26.1313 3.30332 26.1313H18.507C20.0815 26.1313 21.3576 24.8779 21.3576 23.3315V13.9989C21.3576 12.4525 20.0815 11.1991 18.507 11.1991ZM6.154 6.99944C6.154 4.68372 8.07219 2.79978 10.43 2.79978H11.3803C13.7381 2.79978 15.6563 4.68372 15.6563 6.99944V11.1991H6.154V6.99944ZM11.8554 19.339V21.465C11.8554 21.9804 11.43 22.3982 10.9051 22.3982C10.3803 22.3982 9.95491 21.9804 9.95491 21.465V19.339C9.38953 19.0152 9.00468 18.42 9.00468 17.7319C9.00468 16.7025 9.85704 15.8654 10.9051 15.8654C11.9532 15.8654 12.8056 16.7025 12.8056 17.7319C12.8056 18.4197 12.4208 19.0152 11.8554 19.339Z" fill="white"/>
</svg>
